<svg xmlns="http://www.w3.org/2000/svg" viewBox="0 0 512 512" role="img" aria-label="Eli Quest">
  <rect width="512" height="512" rx="104" fill="#071018"/>
  <circle cx="256" cy="256" r="172" fill="#102533" stroke="#6be7d6" stroke-width="18"/>
  <path d="M154 316V168h210v48H212v30h126v46H212v72h-58z" fill="#f5fbff"/>
  <path d="M326 342l58 58-38 38-58-58c-24 12-58 12-84-2l28-42c22 10 50 5 66-13 24-27 19-68-11-88l28-42c58 37 68 118 22 169l-11 10z" fill="#f6c85f"/>
  <circle cx="354" cy="152" r="18" fill="#6be7d6"/>
  <circle cx="118" cy="384" r="14" fill="#f6c85f"/>
</svg>
